<svg width="14" height="14" viewBox="0 0 14 14" fill="none" xmlns="http://www.w3.org/2000/svg">
<path d="M7.00001 0.333344C3.32403 0.333344 0.333344 3.32403 0.333344 7.00001C0.333344 10.676 3.32403 13.6667 7.00001 13.6667C10.676 13.6667 13.6667 10.676 13.6667 7.00001C13.6667 3.32403 10.676 0.333344 7.00001 0.333344ZM7.00001 1.33334C10.1355 1.33334 12.6667 3.86447 12.6667 7.00001C12.6667 10.1355 10.1355 12.6667 7.00001 12.6667C3.86447 12.6667 1.33334 10.1355 1.33334 7.00001C1.33334 3.86447 3.86447 1.33334 7.00001 1.33334ZM9.49024 4.99545C9.36039 4.99924 9.23711 5.05341 9.14649 5.14649L6.16668 8.12631L4.85353 6.81316C4.80745 6.76518 4.75227 6.72686 4.6912 6.70047C4.63014 6.67408 4.56442 6.66014 4.4979 6.65946C4.43139 6.65879 4.3654 6.67139 4.30381 6.69654C4.24222 6.72168 4.18627 6.75886 4.13923 6.8059C4.09219 6.85294 4.05501 6.90889 4.02987 6.97048C4.00472 7.03207 3.99212 7.09805 3.9928 7.16457C3.99347 7.23109 4.00742 7.29681 4.03381 7.35787C4.0602 7.41893 4.09851 7.47412 4.14649 7.52019L5.81316 9.18686C5.90693 9.28059 6.03409 9.33325 6.16668 9.33325C6.29926 9.33325 6.42642 9.28059 6.52019 9.18686L9.85353 5.85353C9.92566 5.78327 9.9749 5.69288 9.99481 5.59418C10.0147 5.49548 10.0044 5.39306 9.96512 5.30034C9.92587 5.20762 9.85953 5.12891 9.7748 5.07451C9.69007 5.02011 9.59089 4.99255 9.49024 4.99545Z" fill="#5E5E5E"/>
</svg>
