<svg width="164" height="30" viewBox="0 0 164 30" fill="none" xmlns="http://www.w3.org/2000/svg">
<path d="M4.76826 -2H159.184V13C159.184 22.3888 151.572 30 142.184 30H21.7682C12.3794 30 4.76826 22.3888 4.76826 13V-2Z" fill="black"/>
<path d="M5.00001 -2H1.05519e-05C-2.6001e-05 -2 4.71047e-05 -2 1.05519e-05 -2C2.6506 -2 4.79945 0.148747 4.79945 2.79934C4.79945 2.86656 4.79806 2.93345 4.79533 3H5.00001V-2Z" fill="black"/>
<path d="M159 -2H164C164 -2 164 -2 164 -2C161.349 -2 159.201 0.148747 159.201 2.79934C159.201 2.86656 159.202 2.93345 159.205 3H159V-2Z" fill="black"/>
</svg>
