<svg width="31" height="14" viewBox="0 0 31 14" fill="none" xmlns="http://www.w3.org/2000/svg">
<path d="M4.87469 0.814453C7.23212 0.831055 9.55634 2.22559 9.57294 6.625C9.57294 10.7754 7.69696 13.166 4.74188 13.166C2.41766 13.166 0.823914 11.7217 0.558289 9.72949H2.69989C2.91571 10.6758 3.64618 11.29 4.74188 11.29C6.48505 11.29 7.46454 9.74609 7.48114 7.17285H7.34833C6.73407 8.21875 5.58856 8.83301 4.26044 8.83301C2.11884 8.83301 0.458679 7.20605 0.442078 4.93164C0.442078 2.57422 2.20184 0.797852 4.87469 0.814453ZM4.8913 2.55762C3.54657 2.55762 2.53387 3.60352 2.55048 4.88184C2.55048 6.17676 3.51337 7.18945 4.85809 7.18945C6.18622 7.18945 7.23212 6.11035 7.21552 4.86523C7.21552 3.63672 6.23602 2.55762 4.8913 2.55762ZM12.286 11.5059C11.5722 11.5059 10.9911 10.9248 10.9911 10.2109C10.9911 9.51367 11.5722 8.93262 12.286 8.93262C12.9667 8.93262 13.5644 9.51367 13.5644 10.2109C13.5644 10.9248 12.9667 11.5059 12.286 11.5059ZM12.286 5.06445C11.5722 5.06445 10.9911 4.4834 10.9911 3.76953C10.9911 3.07227 11.5722 2.49121 12.286 2.49121C12.9667 2.49121 13.5644 3.07227 13.5644 3.76953C13.5644 4.4834 12.9667 5.06445 12.286 5.06445ZM14.9659 10.7588V9.03223L20.1622 0.980469H22.8517V8.98242H24.4288V10.7588H22.8517V13H20.7931V10.7588H14.9659ZM17.1739 8.98242H20.8263V3.4375H20.6935L17.1739 8.89941V8.98242ZM30.4622 0.980469V13H28.2874V3.08887H28.221L25.4153 4.88184V2.90625L28.387 0.980469H30.4622Z" fill="black"/>
</svg>
