<svg width="390" height="110" viewBox="0 0 390 110" fill="none" xmlns="http://www.w3.org/2000/svg">
<path d="M107.767 25.9072H99.2334V24.3301H107.302V22.6699H99.2334V21.1592H107.65V19.4658H97.0752V27.584H101.275V30.1406H95.4482V31.834H109.277V30.1406H103.417V27.584H107.767V25.9072ZM117.877 19.8477H110.622V29.8418H117.877V19.8477ZM112.714 28.165V21.5078H115.769V28.165H112.714ZM119.936 33.5273H122.061V25.874H124.285V24.1143H122.061V18.4199H119.936V33.5273ZM137.151 25.9072H128.618V24.3301H136.687V22.6699H128.618V21.1592H137.035V19.4658H126.46V27.584H130.66V30.1406H124.833V31.834H138.662V30.1406H132.802V27.584H137.151V25.9072ZM148.274 20.0967V19.0176H146.216V20.0635C146.216 21.873 145.361 23.7324 143.228 24.6289L144.39 26.1895C145.776 25.5918 146.714 24.521 147.253 23.2178C147.776 24.3799 148.656 25.3013 150.001 25.8076L151.113 24.2803C149.088 23.5332 148.274 21.8481 148.274 20.0967ZM146.083 28.4805H154.334V29.3271H146.1V33.4277H156.94V31.751H148.208V30.8711H156.426V26.8535H146.083V28.4805ZM151.18 26.2061H153.155V23.2178H154.417V26.3057H156.426V18.4365H154.417V21.5244H153.155V18.6689H151.18V26.2061ZM170.869 18.4199H168.761V23.8652H166.32V25.5918H168.761V33.5605H170.869V18.4199ZM158.634 21.3916H163.415V23.666H158.667V30.041H159.912C162.444 30.0493 164.494 29.9663 166.735 29.5928L166.569 27.8662C164.619 28.2065 162.859 28.2812 160.775 28.2979V25.3428H165.474V19.6816H158.634V21.3916ZM185.146 25.4092H176.547V21.3916H185.03V19.6816H174.455V27.1025H185.146V25.4092ZM172.828 31.6846H186.657V29.9414H172.828V31.6846Z" fill="#333D4B"/>
<path d="M104.791 50.5596H94.4189V51.5498H99.002V55.0918H100.195V51.5498H104.791V50.5596ZM95.0283 48.8076L95.4727 49.7725C97.3071 49.5186 98.8687 48.6743 99.605 47.5C100.341 48.6616 101.896 49.5186 103.725 49.7725L104.156 48.8076C101.992 48.5347 100.271 47.3159 100.208 46.0527H103.801V45.0752H100.195V43.7041H99.002V45.0752H95.3965V46.0527H99.002C98.9258 47.3286 97.1865 48.5347 95.0283 48.8076ZM109.641 46.4082V46.1416H112.116V45.1641H109.653V43.7803H108.447V45.1641H105.972V46.1416H108.447V46.4082C108.447 47.938 107.394 49.3408 105.654 49.8994L106.238 50.8389C107.584 50.3945 108.568 49.4614 109.063 48.2744C109.583 49.3853 110.567 50.2485 111.875 50.6611L112.459 49.709C110.713 49.1631 109.641 47.8428 109.641 46.4082ZM107.749 54.8379H115.442V53.8604H108.955V51.4355H107.749V54.8379ZM111.723 48.1348H113.932V52.1846H115.138V43.7168H113.932V47.1572H111.723V48.1348ZM127.3 52.6416H122.641V49.9375H121.447V52.6416H116.89V53.6318H127.3V52.6416ZM117.245 49.1504L117.778 50.1406C119.613 49.7788 121.289 48.6299 122.038 47.0811C122.787 48.6362 124.475 49.7788 126.322 50.1406L126.843 49.1504C124.646 48.7822 122.666 47.0938 122.666 45.291V44.4277H121.396V45.291C121.39 47.0938 119.435 48.7822 117.245 49.1504ZM133.901 45.3164V44.4531H132.632V45.3164C132.625 47.1699 130.664 48.9092 128.506 49.3154L129.039 50.3184C130.861 49.9121 132.53 48.7251 133.279 47.1318C134.016 48.7314 135.685 49.9248 137.507 50.3184L138.065 49.3154C135.875 48.9219 133.901 47.1699 133.901 45.3164ZM128.125 53.5811H138.535V52.5781H128.125V53.5811ZM141.404 53.124H139.982L139.31 56.6279H140.389L141.404 53.124ZM149.263 47.1826V46.7637H151.332V45.7607H149.263V44.1104H148.133V45.7607H146.025V46.7637H148.133V47.1826C148.12 49.0171 147.301 50.9531 145.733 51.8672L146.444 52.7559C147.542 52.1211 148.304 50.9341 148.704 49.563C149.117 50.8452 149.885 51.9307 150.989 52.5146L151.675 51.6133C150.088 50.7817 149.263 48.9536 149.263 47.1826ZM152.03 54.5205H153.173V49.2393H154.531V55.0791H155.687V43.7041H154.531V48.2236H153.173V43.9199H152.03V54.5205ZM167.506 52.6416H162.847V49.9375H161.653V52.6416H157.096V53.6318H167.506V52.6416ZM157.451 49.1504L157.984 50.1406C159.819 49.7788 161.495 48.6299 162.244 47.0811C162.993 48.6362 164.681 49.7788 166.528 50.1406L167.049 49.1504C164.853 48.7822 162.872 47.0938 162.872 45.291V44.4277H161.603V45.291C161.596 47.0938 159.641 48.7822 157.451 49.1504ZM170.883 43.8818H169.689V47.6523H172.901V48.6426H168.331V49.6074H178.703V48.6426H174.082V47.6523H177.357V43.8818H176.151V44.8721H170.883V43.8818ZM169.575 51.334H176.202V52.2227H169.588V54.9648H177.713V54.0381H170.769V53.0859H177.396V50.4326H169.575V51.334ZM170.883 46.7383V45.7607H176.151V46.7383H170.883ZM181.61 53.124H180.188L179.516 56.6279H180.595L181.61 53.124ZM187.59 44.7959H186.447V52.2734H190.878V48.9727H192.389V54.5332H193.544V43.9326H192.389V47.9697H190.878V44.7959H189.773V47.5254H187.59V44.7959ZM187.59 51.2705V48.5029H189.773V51.2705H187.59ZM194.699 55.0791H195.854V43.7041H194.699V55.0791ZM206.722 43.7041H205.516V55.1045H206.722V43.7041ZM197.695 48.541C197.695 50.9976 198.92 52.5464 200.641 52.54C202.329 52.5464 203.573 50.9976 203.573 48.541C203.573 46.1099 202.329 44.561 200.641 44.5547C198.92 44.561 197.695 46.1099 197.695 48.541ZM198.863 48.541C198.857 46.7573 199.581 45.6401 200.641 45.6338C201.682 45.6401 202.405 46.7573 202.405 48.541C202.405 50.3501 201.682 51.4609 200.641 51.4609C199.581 51.4609 198.857 50.3501 198.863 48.541ZM214.479 44.6055H209.337V45.583H213.209C213.171 46.0083 213.082 46.4146 212.942 46.8018L208.766 46.9795L208.956 47.957L212.498 47.665C211.832 48.668 210.657 49.4868 208.804 50.0898L209.286 51.042C213.006 49.8105 214.472 47.6206 214.479 44.6055ZM210.733 54.8379H218.338V53.8604H211.952V51.3086H210.733V54.8379ZM214.44 48.2617H216.814V52.1338H218.021V43.7168H216.814V47.2715H214.44V48.2617ZM230.145 50.5596H219.772V51.5498H224.355V55.0918H225.549V51.5498H230.145V50.5596ZM220.382 48.8076L220.826 49.7725C222.661 49.5186 224.222 48.6743 224.958 47.5C225.695 48.6616 227.25 49.5186 229.078 49.7725L229.51 48.8076C227.345 48.5347 225.625 47.3159 225.562 46.0527H229.154V45.0752H225.549V43.7041H224.355V45.0752H220.75V46.0527H224.355C224.279 47.3286 222.54 48.5347 220.382 48.8076ZM239.869 43.7041H238.663V55.0664H239.869V49.2393H241.634V48.2363H239.869V43.7041ZM231.021 52.0322L231.693 52.9717C235.438 51.1245 236.886 48.1855 236.898 44.8975H231.592V45.9004H235.667C235.419 48.5537 233.871 50.6104 231.021 52.0322ZM244.287 53.124H242.865L242.192 56.6279H243.271L244.287 53.124ZM252.92 46.5986V44.6562H251.701V46.5986C251.701 48.7695 250.444 50.9468 248.654 51.7402L249.391 52.7559C250.755 52.0894 251.803 50.7183 252.33 49.0488C252.863 50.604 253.897 51.8799 255.205 52.502L255.929 51.5498C254.164 50.769 252.907 48.6743 252.92 46.5986ZM256.957 55.1045H258.163V43.7041H256.957V55.1045ZM269.475 43.7041H268.269V47.792H265.92V48.7822H268.269V55.1045H269.475V43.7041ZM259.852 51.9307L260.588 52.8701C261.902 52.1973 262.937 50.7817 263.444 49.1313C263.952 50.6802 264.961 52.0068 266.275 52.6416L266.999 51.6768C265.253 50.9023 264.041 48.8267 264.041 46.9033V45.8369H266.567V44.8467H260.309V45.8369H262.822V46.9033C262.816 48.9473 261.591 51.0991 259.852 51.9307ZM280.431 49.0996H273.702V45.71H280.329V44.7197H272.509V50.0898H280.431V49.0996ZM271.214 53.5811H281.624V52.5781H271.214V53.5811ZM286.854 44.9229H282.792V45.9004H285.699V48.0078H282.805V52.3242H283.592C285.02 52.3115 286.315 52.2798 287.896 51.9941L287.794 51.0039C286.391 51.2515 285.21 51.3022 283.973 51.3086V48.9727H286.854V44.9229ZM287.388 48.7061H288.733V54.4951H289.876V43.958H288.733V47.7285H287.388V48.7061ZM291.057 55.0791H292.212V43.7041H291.057V55.0791ZM103.852 59.7168H102.646V66.4834H103.852V59.7168ZM94.4824 65.1631L95.0918 66.1279C96.4438 65.6201 97.4468 64.5918 97.9546 63.2969C98.4688 64.4585 99.4526 65.3726 100.779 65.8232L101.376 64.8711C99.6304 64.2935 98.5513 62.8716 98.5576 61.3164V60.2119H97.3262V61.3164C97.3198 62.9604 96.2534 64.5283 94.4824 65.1631ZM96.1836 68.8828C96.1899 70.2476 97.6562 71.041 100.056 71.041C102.43 71.041 103.909 70.2476 103.915 68.8828C103.909 67.5117 102.43 66.7183 100.056 66.7119C97.6562 66.7183 96.1899 67.5117 96.1836 68.8828ZM97.3896 68.8828C97.3833 68.0957 98.3799 67.6704 100.056 67.6641C101.719 67.6704 102.728 68.0957 102.734 68.8828C102.728 69.6636 101.719 70.0889 100.056 70.0889C98.3799 70.0889 97.3833 69.6636 97.3896 68.8828ZM119.2 66.5596H108.828V67.5498H113.411V71.0918H114.604V67.5498H119.2V66.5596ZM109.438 64.8076L109.882 65.7725C111.716 65.5186 113.278 64.6743 114.014 63.5C114.75 64.6616 116.306 65.5186 118.134 65.7725L118.565 64.8076C116.401 64.5347 114.681 63.3159 114.617 62.0527H118.21V61.0752H114.604V59.7041H113.411V61.0752H109.806V62.0527H113.411C113.335 63.3286 111.596 64.5347 109.438 64.8076ZM128.925 59.7041H127.719V71.0664H128.925V65.2393H130.689V64.2363H128.925V59.7041ZM120.076 68.0322L120.749 68.9717C124.494 67.1245 125.941 64.1855 125.954 60.8975H120.647V61.9004H124.723C124.475 64.5537 122.926 66.6104 120.076 68.0322Z" fill="#6B7684"/>
<path d="M97.3037 81.8086H95.9326L93.6475 83.3066V84.6396L95.8438 83.2051H95.8945V91H97.3037V81.8086ZM102.839 91.127C104.965 91.127 106.209 89.4131 106.216 86.4043C106.209 83.4146 104.946 81.6816 102.839 81.6816C100.725 81.6816 99.4619 83.4146 99.4619 86.4043C99.4619 89.4131 100.712 91.127 102.839 91.127ZM100.858 86.4043C100.858 84.1191 101.601 82.8687 102.839 82.8623C104.07 82.8687 104.819 84.1191 104.819 86.4043C104.819 88.6958 104.077 89.9209 102.839 89.9209C101.595 89.9209 100.852 88.6958 100.858 86.4043ZM108.971 90.124H107.549L106.876 93.6279H107.955L108.971 90.124ZM113.782 91.127C115.756 91.1396 117.07 89.7749 117.07 87.9912C117.07 86.2329 115.75 84.9761 114.112 84.9697C113.116 84.9761 112.252 85.4331 111.751 86.2139H111.649C111.649 84.1382 112.475 82.9067 113.896 82.9004C114.823 82.9067 115.414 83.4463 115.598 84.1953H116.981C116.766 82.7354 115.591 81.6816 113.896 81.6816C111.694 81.6816 110.31 83.5098 110.304 86.709C110.304 90.105 112.081 91.1143 113.782 91.127ZM111.814 88.0293C111.827 87.0073 112.684 86.106 113.808 86.1123C114.912 86.106 115.712 86.9629 115.712 88.0166C115.712 89.0894 114.88 89.9526 113.77 89.959C112.64 89.9526 111.821 89.0513 111.814 88.0293ZM121.755 91.127C123.881 91.127 125.125 89.4131 125.132 86.4043C125.125 83.4146 123.862 81.6816 121.755 81.6816C119.641 81.6816 118.378 83.4146 118.378 86.4043C118.378 89.4131 119.628 91.127 121.755 91.127ZM119.774 86.4043C119.774 84.1191 120.517 82.8687 121.755 82.8623C122.986 82.8687 123.735 84.1191 123.735 86.4043C123.735 88.6958 122.993 89.9209 121.755 89.9209C120.511 89.9209 119.768 88.6958 119.774 86.4043ZM129.778 91.127C131.905 91.127 133.149 89.4131 133.155 86.4043C133.149 83.4146 131.886 81.6816 129.778 81.6816C127.665 81.6816 126.401 83.4146 126.401 86.4043C126.401 89.4131 127.652 91.127 129.778 91.127ZM127.798 86.4043C127.798 84.1191 128.541 82.8687 129.778 82.8623C131.01 82.8687 131.759 84.1191 131.759 86.4043C131.759 88.6958 131.016 89.9209 129.778 89.9209C128.534 89.9209 127.792 88.6958 127.798 86.4043ZM143.667 80.7168H142.461V87.3945H140.176V88.2451H142.461V89.3369H143.667V80.7168ZM134.158 85.9092L134.311 86.874C135.231 86.874 136.291 86.874 137.396 86.8296V88.9814H138.602V86.7661C139.604 86.6963 140.626 86.5947 141.598 86.4297L141.521 85.5664C139.097 85.8711 136.259 85.8901 134.158 85.9092ZM135.047 83.1543C135.041 84.3667 136.196 85.1348 137.878 85.1348C139.541 85.1348 140.696 84.3667 140.696 83.1543C140.696 81.9482 139.541 81.1484 137.878 81.1484C136.189 81.1484 135.041 81.9482 135.047 83.1543ZM135.732 91.8379H143.946V90.8604H136.926V88.499H135.732V91.8379ZM136.189 83.1543C136.183 82.4751 136.869 82.0371 137.878 82.0498C138.849 82.0371 139.547 82.4751 139.554 83.1543C139.547 83.8271 138.849 84.2461 137.878 84.2461C136.869 84.2461 136.183 83.8271 136.189 83.1543Z" fill="#6B7684"/>
<path d="M324.966 49.3945H323.384L320.747 51.123V52.6611L323.281 51.0059H323.34V60H324.966V49.3945ZM338.442 48.1201H337.109V53.3057H335.483V48.4717H334.18V60.6152H335.483V54.4336H337.109V61.2451H338.442V48.1201ZM327.163 57.4951L327.969 58.4619C331.726 56.3452 332.869 53.2397 332.876 49.79H327.72V50.9326H331.521C331.301 53.606 330.078 55.8398 327.163 57.4951Z" fill="#6B7684"/>
<path d="M359.55 61.6499C359.75 61.6499 359.95 61.5833 360.083 61.3833L365.083 56.3833C365.417 56.0499 365.417 55.5833 365.083 55.2499L360.083 50.2499C359.75 49.9166 359.283 49.9166 358.95 50.2499C358.617 50.5833 358.617 51.0499 358.95 51.3833L363.483 55.8499L359.017 60.3166C358.683 60.6499 358.683 61.1166 359.017 61.4499C359.15 61.5833 359.35 61.6499 359.55 61.6499Z" fill="#6B7684"/>
</svg>
