<svg width="24" height="24" viewBox="0 0 24 24" fill="none" xmlns="http://www.w3.org/2000/svg">
<path d="M10.4 2.40002C5.99122 2.40002 2.40002 5.99122 2.40002 10.4C2.40002 14.8088 5.99122 18.4 10.4 18.4C12.3172 18.4 14.0779 17.7192 15.4578 16.5891L20.2344 21.3657C20.3081 21.4424 20.3964 21.5037 20.4941 21.546C20.5918 21.5882 20.697 21.6105 20.8034 21.6116C20.9098 21.6127 21.0154 21.5925 21.114 21.5523C21.2125 21.512 21.302 21.4525 21.3773 21.3773C21.4525 21.302 21.512 21.2125 21.5523 21.114C21.5925 21.0154 21.6127 20.9098 21.6116 20.8034C21.6105 20.697 21.5882 20.5918 21.546 20.4941C21.5037 20.3964 21.4424 20.3081 21.3657 20.2344L16.5891 15.4578C17.7192 14.0779 18.4 12.3172 18.4 10.4C18.4 5.99122 14.8088 2.40002 10.4 2.40002ZM10.4 4.00002C13.9441 4.00002 16.8 6.85593 16.8 10.4C16.8 13.9441 13.9441 16.8 10.4 16.8C6.85593 16.8 4.00002 13.9441 4.00002 10.4C4.00002 6.85593 6.85593 4.00002 10.4 4.00002Z" fill="black"/>
</svg>
