<svg width="24" height="24" viewBox="0 0 24 24" fill="none" xmlns="http://www.w3.org/2000/svg">
<path d="M2.41137 5.60006C2.30536 5.59856 2.20011 5.61814 2.10174 5.65767C2.00336 5.6972 1.91382 5.75589 1.83833 5.83033C1.76283 5.90476 1.70288 5.99346 1.66197 6.09127C1.62105 6.18907 1.59998 6.29404 1.59998 6.40006C1.59998 6.50608 1.62105 6.61104 1.66197 6.70884C1.70288 6.80665 1.76283 6.89535 1.83833 6.96978C1.91382 7.04422 2.00336 7.10291 2.10174 7.14244C2.20011 7.18197 2.30536 7.20155 2.41137 7.20006H21.6114C21.7174 7.20155 21.8226 7.18197 21.921 7.14244C22.0194 7.10291 22.1089 7.04422 22.1844 6.96978C22.2599 6.89535 22.3199 6.80665 22.3608 6.70884C22.4017 6.61104 22.4228 6.50608 22.4228 6.40006C22.4228 6.29404 22.4017 6.18907 22.3608 6.09127C22.3199 5.99346 22.2599 5.90476 22.1844 5.83033C22.1089 5.75589 22.0194 5.6972 21.921 5.65767C21.8226 5.61814 21.7174 5.59856 21.6114 5.60006H2.41137ZM2.41137 11.2001C2.30536 11.1986 2.20011 11.2181 2.10174 11.2577C2.00336 11.2972 1.91382 11.3559 1.83833 11.4303C1.76283 11.5048 1.70288 11.5935 1.66197 11.6913C1.62105 11.7891 1.59998 11.894 1.59998 12.0001C1.59998 12.1061 1.62105 12.211 1.66197 12.3088C1.70288 12.4067 1.76283 12.4953 1.83833 12.5698C1.91382 12.6442 2.00336 12.7029 2.10174 12.7424C2.20011 12.782 2.30536 12.8016 2.41137 12.8001H21.6114C21.7174 12.8016 21.8226 12.782 21.921 12.7424C22.0194 12.7029 22.1089 12.6442 22.1844 12.5698C22.2599 12.4953 22.3199 12.4067 22.3608 12.3088C22.4017 12.211 22.4228 12.1061 22.4228 12.0001C22.4228 11.894 22.4017 11.7891 22.3608 11.6913C22.3199 11.5935 22.2599 11.5048 22.1844 11.4303C22.1089 11.3559 22.0194 11.2972 21.921 11.2577C21.8226 11.2181 21.7174 11.1986 21.6114 11.2001H2.41137ZM2.41137 16.8001C2.30536 16.7986 2.20011 16.8181 2.10174 16.8577C2.00336 16.8972 1.91382 16.9559 1.83833 17.0303C1.76283 17.1048 1.70288 17.1935 1.66197 17.2913C1.62105 17.3891 1.59998 17.494 1.59998 17.6001C1.59998 17.7061 1.62105 17.811 1.66197 17.9088C1.70288 18.0067 1.76283 18.0953 1.83833 18.1698C1.91382 18.2442 2.00336 18.3029 2.10174 18.3424C2.20011 18.382 2.30536 18.4016 2.41137 18.4001H21.6114C21.7174 18.4016 21.8226 18.382 21.921 18.3424C22.0194 18.3029 22.1089 18.2442 22.1844 18.1698C22.2599 18.0953 22.3199 18.0067 22.3608 17.9088C22.4017 17.811 22.4228 17.7061 22.4228 17.6001C22.4228 17.494 22.4017 17.3891 22.3608 17.2913C22.3199 17.1935 22.2599 17.1048 22.1844 17.0303C22.1089 16.9559 22.0194 16.8972 21.921 16.8577C21.8226 16.8181 21.7174 16.7986 21.6114 16.8001H2.41137Z" fill="black"/>
</svg>
