<svg width="11" height="11" viewBox="0 0 11 11" fill="none" xmlns="http://www.w3.org/2000/svg">
<path d="M4.94432 0.872705C5.094 0.412049 5.74571 0.41205 5.89538 0.872705L6.78496 3.61053C6.85189 3.81654 7.04387 3.95602 7.26048 3.95602H10.1392C10.6236 3.95602 10.825 4.57583 10.4331 4.86053L8.10416 6.5526C7.92892 6.67992 7.85559 6.90561 7.92253 7.11162L8.8121 9.84944C8.96178 10.3101 8.43454 10.6932 8.04268 10.4085L5.71375 8.71639C5.5385 8.58907 5.3012 8.58907 5.12596 8.71639L2.79703 10.4085C2.40517 10.6932 1.87793 10.3101 2.02761 9.84944L2.91718 7.11162C2.98412 6.90561 2.91079 6.67992 2.73554 6.5526L0.406609 4.86053C0.0147521 4.57583 0.21614 3.95602 0.700502 3.95602H3.57922C3.79584 3.95602 3.98781 3.81654 4.05475 3.61053L4.94432 0.872705Z" fill="#6B7684"/>
</svg>
