<svg width="16" height="16" viewBox="0 0 16 16" fill="none" xmlns="http://www.w3.org/2000/svg">
<path d="M3.33337 12V14.5107L4.34337 13.9047L7.51804 12H10.6667C11.402 12 12 11.402 12 10.6667V5.33333C12 4.598 11.402 4 10.6667 4H2.66671C1.93137 4 1.33337 4.598 1.33337 5.33333V10.6667C1.33337 11.402 1.93137 12 2.66671 12H3.33337ZM2.66671 5.33333H10.6667V10.6667H7.14871L4.66671 12.156V10.6667H2.66671V5.33333Z" fill="#8C8C8C"/>
<path d="M13.3333 1.33331H5.33333C4.598 1.33331 4 1.93131 4 2.66665H12C12.7353 2.66665 13.3333 3.26465 13.3333 3.99998V9.33331C14.0687 9.33331 14.6667 8.73531 14.6667 7.99998V2.66665C14.6667 1.93131 14.0687 1.33331 13.3333 1.33331Z" fill="#8C8C8C"/>
</svg>
