<svg width="22" height="18" viewBox="0 0 22 18" fill="none" xmlns="http://www.w3.org/2000/svg">
<path d="M2.75 0C1.5095 0 0.5 1.0095 0.5 2.25V14.75C0.5 16.542 1.958 18 3.75 18H18.25C20.042 18 21.5 16.542 21.5 14.75V6.25C21.5 5.095 20.622 4.15139 19.5 4.02539V14.25C19.5 14.664 19.164 15 18.75 15C18.336 15 18 14.664 18 14.25V2.25C18 1.0095 16.9905 0 15.75 0H2.75ZM4.25 4.5H14.25C14.6645 4.5 15 4.836 15 5.25C15 5.664 14.6645 6 14.25 6H4.25C3.8355 6 3.5 5.664 3.5 5.25C3.5 4.836 3.8355 4.5 4.25 4.5ZM4.25 8.5H7.75C8.1645 8.5 8.5 8.836 8.5 9.25V12.75C8.5 13.164 8.1645 13.5 7.75 13.5H4.25C3.8355 13.5 3.5 13.164 3.5 12.75V9.25C3.5 8.836 3.8355 8.5 4.25 8.5ZM10.75 8.5H14.25C14.6645 8.5 15 8.836 15 9.25C15 9.664 14.6645 10 14.25 10H10.75C10.3355 10 10 9.664 10 9.25C10 8.836 10.3355 8.5 10.75 8.5ZM5 10V12H7V10H5ZM10.75 12H14.25C14.6645 12 15 12.336 15 12.75C15 13.164 14.6645 13.5 14.25 13.5H10.75C10.3355 13.5 10 13.164 10 12.75C10 12.336 10.3355 12 10.75 12Z" fill="black"/>
</svg>
