<svg width="18" height="24" viewBox="0 0 18 24" fill="none" xmlns="http://www.w3.org/2000/svg">
<path d="M8.075 23.5202C1.264 13.6421 0 12.6291 0 9.00008C0 4.02904 4.029 0 9 0C13.971 0 18 4.02904 18 9.00008C18 12.6291 16.736 13.6401 9.925 23.5162C9.82157 23.6652 9.68368 23.787 9.52307 23.8712C9.36247 23.9554 9.1839 23.9996 9.00254 24C8.82119 24.0004 8.64243 23.957 8.48146 23.8734C8.32049 23.7899 8.18208 23.6687 8.078 23.5202L8.076 23.5162L8.075 23.5202ZM9 12.7501C9.99456 12.7501 10.9484 12.355 11.6517 11.6518C12.3549 10.9485 12.75 9.99465 12.75 9.00008C12.75 8.00551 12.3549 7.05168 11.6517 6.34841C10.9484 5.64514 9.99456 5.25005 9 5.25005C8.00544 5.25005 7.05161 5.64514 6.34835 6.34841C5.64509 7.05168 5.25 8.00551 5.25 9.00008C5.25 9.99465 5.64509 10.9485 6.34835 11.6518C7.05161 12.355 8.00544 12.7501 9 12.7501Z" fill="#FF7E36"/>
</svg>
